<svg id="Calque_1" data-name="Calque 1" xmlns="http://www.w3.org/2000/svg" xmlns:xlink="http://www.w3.org/1999/xlink" viewBox="0 0 1678.98 843.57"><defs><style>.cls-1{fill:none;}.cls-2{fill:#1e1e1c;}.cls-3{clip-path:url(#clip-path);}.cls-4{fill:#ef7727;}.cls-5{fill:#d04216;}.cls-6{fill:#fff;}</style><clipPath id="clip-path"><rect class="cls-1" width="1678.98" height="843.57"/></clipPath></defs><polygon class="cls-2" points="1085.88 237.17 1118.9 237.17 1118.9 406.22 1107.89 406.22 1014.45 303.58 1014.45 403.2 981.42 403.2 981.42 234.15 992.19 234.15 1085.88 336.29 1085.88 237.17"/><path class="cls-2" d="M1253.93,403.2l-9-21.63h-66.05l-9,21.63h-35.47l72.16-169h11l71.92,169Zm-20.55-49.56-21.53-56.1-21.52,56.1Z"/><g class="cls-3"><path class="cls-2" d="M1292.33,320.18q-.49-35.46,25.08-61.13t60.54-24.9q35-.75,60.79,24.9t25.32,61.13q.48,35.47-25.32,61.13T1378,406.22q-35,.75-60.54-24.91t-25.08-61.13m137.72,0q0-23.64-14.8-39.11t-37.06-15.47q-22.5,0-37.18,15.34t-14.67,39.24q0,23.91,14.67,39.25t37.18,15.34q22.26,0,37.06-15.34t14.8-39.25"/><polygon class="cls-4" points="981.42 593.7 981.42 427.66 1087.59 427.66 1087.59 458.35 1014.45 458.35 1014.45 499.86 1074.38 499.86 1074.38 530.55 1014.45 530.55 1014.45 593.7 981.42 593.7"/><path class="cls-4" d="M1101.78,510.68q-.49-35.48,25.07-61.13t60.54-24.91q35-.75,60.79,24.91t25.32,61.13q.48,35.48-25.32,61.13t-60.79,24.9q-35,.76-60.54-24.9t-25.07-61.13m137.72,0q0-23.64-14.8-39.12t-37.06-15.47q-22.52,0-37.18,15.34t-14.68,39.25q0,23.9,14.68,39.24t37.18,15.35q22.26,0,37.06-15.35t14.8-39.24"/><path class="cls-4" d="M1292.09,510.68q-.49-35.48,25.07-61.13t60.55-24.91q35-.75,60.78,24.91t25.32,61.13q.5,35.48-25.32,61.13t-60.78,24.9q-35,.76-60.55-24.9t-25.07-61.13m137.72,0q0-23.64-14.8-39.12T1378,456.09q-22.52,0-37.18,15.34t-14.68,39.25q0,23.9,14.68,39.24T1378,565.27q22.26,0,37.06-15.35t14.8-39.24"/><path class="cls-4" d="M1491.7,593.69v-166h52.83q38.65-.5,63.61,22.77t24.46,59.74q.48,36.23-24.71,60.13t-63.36,23.39Zm33-30.69h19.57q24.46,0,39.38-14.46t14.93-38.37q0-24.15-14.68-38t-39.63-13.84h-19.57Z"/><path class="cls-4" d="M823.16,416.36c0,215.59-174.77,390.36-390.36,390.36S42.45,632,42.45,416.36,217.22,26,432.8,26,823.16,200.77,823.16,416.36"/><path class="cls-5" d="M695.66,429.94c-9.76-41.87-36.79-79.65-65-107.7l-2-2c-.65-.67-1.31-1.32-2-2l-2-2-2-2-2-2-2-2c-.65-.67-1.31-1.32-2-2l-2-2-2-2c-.65-.66-1.31-1.31-2-2l-2-2c-.65-.67-1.31-1.32-2-2s-1.31-1.31-2-2l-2-2c-.65-.67-1.31-1.32-2-2l-2-2-1-1c5.47-3.46,13.34-8.66,24.43-16.36a10.45,10.45,0,0,0,3.56-12.85,42.87,42.87,0,0,0-10.2-14.28c-.64-.67-1.29-1.34-2-2s-1.29-1.34-2-2-1.29-1.35-2-2-1.29-1.34-2-2-1.29-1.34-2-2-1.29-1.34-2-2-1.29-1.34-2-2-1.29-1.34-2-2-1.29-1.34-2-2-1.29-1.34-2-2-1.29-1.34-2-2-1.29-1.34-2-2-1.29-1.34-2-2-1.29-1.34-2-2-1.3-1.34-2-2-1.29-1.35-2-2-1.29-1.34-2-2-1.29-1.34-2-2-1.29-1.34-2-2-1.29-1.34-2-2-1.29-1.35-2-2-1.29-1.34-2-2-1.29-1.34-2-2-1.29-1.34-2-2c-11.54-12.11-28.18-15.63-37.92-16.6a9.74,9.74,0,0,0-10.21,6.57l-11.14,33.19c-57.42-26.16-168.27-61.17-222.72-9.18-25.41,22.64-15.76,80-15.76,80L288,310.28l-2.34.16c-1.39.1-2.69.21-3.87.31-1.47.14-2.79.26-3.91.38l-.7.07-3.07.36-.31,0a0,0,0,0,1,0,0l-.61.1s-2.57,2-6.68,6.06l-1,1A191.78,191.78,0,0,0,229.29,370l57.8,58.09c0,.6,0,1.2,0,1.81a59.68,59.68,0,0,1-22.4,46.54c.84.49,1.66,1,2.47,1.53l-.51.44c.84.48,1.66,1,2.47,1.53-.17.14-.33.29-.51.43.85.49,1.67,1,2.48,1.53l-.51.43c.84.49,1.66,1,2.47,1.54-.17.14-.33.29-.51.43.84.48,1.67,1,2.48,1.53l-.52.43c.85.49,1.67,1,2.48,1.53l-.51.44c.84.48,1.66,1,2.47,1.53-.17.14-.33.29-.51.43.84.48,1.67,1,2.48,1.53-.18.14-.34.29-.51.43.56.33,1.1.68,1.65,1,.17.26.34.51.5.78l-.19.16.47.29a49.8,49.8,0,0,1-38.35,74.81,394,394,0,0,0,23,36.52,30.42,30.42,0,0,0,2.3,2.87c.63.7,1.29,1.34,2,2l.13.14.1.1c.56.6,1.13,1.18,1.73,1.73a1.85,1.85,0,0,0,.14.14l.1.09c.55.61,1.13,1.18,1.72,1.73l.14.14a.94.94,0,0,1,.1.1c.56.6,1.13,1.17,1.73,1.73l.13.13.1.1c.56.6,1.14,1.18,1.73,1.73l.14.14.1.1c.55.6,1.13,1.17,1.72,1.72l.14.14.1.1c.56.6,1.13,1.18,1.73,1.73a.86.86,0,0,0,.14.13l.09.1c.56.61,1.14,1.18,1.73,1.73l.14.14.1.1c.55.6,1.13,1.17,1.73,1.72l.13.14.1.1c.56.6,1.13,1.18,1.73,1.73l.14.14.1.09c.55.61,1.13,1.18,1.72,1.73l.14.14.1.1c.56.6,1.13,1.17,1.73,1.73a.86.86,0,0,0,.14.13l.09.1c.56.61,1.14,1.18,1.73,1.73l.14.14.1.1c.55.6,1.13,1.17,1.73,1.72l.13.14.1.1c.56.6,1.13,1.18,1.73,1.73l.14.14.09.09c.56.61,1.14,1.18,1.73,1.73l.14.14.1.1c.55.6,1.13,1.17,1.73,1.73a1.59,1.59,0,0,1,.13.13l.1.1c.56.6,1.14,1.18,1.73,1.73l.14.14.1.09c.55.61,1.13,1.18,1.72,1.73l.14.14s.07.06.1.1c.56.6,1.13,1.18,1.73,1.73a.86.86,0,0,0,.14.13l.09.1c.56.61,1.14,1.18,1.73,1.73a1.85,1.85,0,0,1,.14.14l.1.1c.55.6,1.13,1.17,1.73,1.73l.13.13.1.1c.56.6,1.14,1.18,1.73,1.73l.14.14.1.09c.55.61,1.13,1.18,1.72,1.73a1.85,1.85,0,0,1,.14.14.94.94,0,0,1,.1.1c.56.6,1.13,1.17,1.73,1.73a.86.86,0,0,0,.14.13l.09.1c.6.65,1.22,1.28,1.87,1.87a.24.24,0,0,0,.1.1,31.24,31.24,0,0,0,10.9,6.38c38.8,13.18,184.19,49.25,272.36-110.82A295.08,295.08,0,0,0,597,520.73l23.19,23s1.39-.2,3.8-.73c51.09-11.16,83.59-62.15,71.72-113.09"/><path class="cls-6" d="M555.29,506.35c-88.18,160.08-233.56,124-272.37,110.82a31,31,0,0,1-10.9-6.38.24.24,0,0,1-.1-.1c-.72-.67-1.43-1.35-2.1-2.1a29.19,29.19,0,0,1-2.3-2.87,394,394,0,0,1-23-36.52,49.8,49.8,0,0,0,20.21-92.78A59.81,59.81,0,0,0,229.29,370a191.78,191.78,0,0,1,36.21-51.25l1-1c4.11-4,6.68-6.06,6.68-6.06l.61-.1a0,0,0,0,0,0,0l.31,0,3.07-.36c.23,0,.47-.05.7-.07,1.12-.12,2.44-.24,3.91-.38,1.18-.1,2.48-.21,3.87-.31l2.91-.2a.55.55,0,0,0,.19,0c54.79-3.37,236.47.47,266.54,196.13"/><path class="cls-6" d="M574.84,493.93c-2.41.53-3.79.74-3.79.74C533.31,249,271.18,293.17,271.18,293.17s-9.65-57.35,15.76-80c54.45-52,165.3-17,222.72,9.18l11.14-33.19A9.74,9.74,0,0,1,531,182.6c12.46,1.24,36.3,6.59,46.16,28.91a10.47,10.47,0,0,1-3.56,12.85c-13.58,9.44-22.35,15.11-27.77,18.46,37.52,26.61,86.77,78.16,100.72,138,11.87,50.93-20.62,101.93-71.72,113.08"/></g></svg>