<svg xmlns="http://www.w3.org/2000/svg" xmlns:xlink="http://www.w3.org/1999/xlink" viewBox="0 0 512 512"><defs><style>.a388c002-a07b-4fab-a8a3-1d678aebff70{fill:#fff;}.b64cea32-70de-4b82-8010-7a8da677ae37{fill:url(#a7fb876a-2849-46cc-95f3-66fe285ad511);}.a012e52f-3f7d-427e-a7d3-0c7e779fddb3{fill:url(#f8cfc9f6-dc1a-4f9c-a551-22f0d3af8eae);}.b0d1fed1-64f4-4214-8cf3-ec5c4e999a67{fill:url(#ad960c03-0fe1-439d-b5be-a8c08a38c22e);}.e4b04d27-0866-470c-b60f-1b44b5af090c{fill:url(#b5236e83-da1f-45e7-b21a-32463bcce144);}.aba56e96-23cd-48eb-857c-c5753cd1122d{fill:url(#a729be9f-73c8-4762-84b2-7658e55b63f1);}.b706e286-70c3-48ca-8ec3-0a1dc18510f2{fill:url(#b4634bf4-74d4-4dc3-bf2c-0d3deecb7629);}.e8bdc775-1b5b-4848-ad92-7b6cbd00f52f{fill:url(#a85b8dfc-2e97-405a-9dbd-a2c277d93fbc);}.e034f7ab-b72c-4209-930d-410b43b629ce{fill:url(#b6668028-b85e-4910-8c8e-002dcab12afc);}.feefed2f-6cb4-4575-bf9c-698850f8212f{fill:url(#a490496a-d47f-41b3-84d1-e79787994fed);}.b6c3608f-4c67-42b7-a5fb-9b6c798c44dc{fill:url(#a73fe14e-7c51-4f57-9be2-4dfddab6652c);}.b9cbce01-72a5-4282-beba-2ab39db30e15{fill:url(#b4b95787-a38f-4724-bcd9-af20bbfb8d37);}.e9a1c1ca-b0f4-4a87-8472-01dcce4efd69{fill:none;}.f8a2ffcd-7595-4c2e-b19c-e4fd0aa8a8c9{fill:url(#aef32773-17e1-42fb-9ed4-082d494abcfc);}.af14a7be-6f75-4145-8be8-ba3c15eb3e23{fill:url(#e4a0cb28-51f5-4b05-8871-83127f81ca06);}.b63e222a-daf0-4ff8-ad70-7b67e5f8f5ab{fill:url(#a6016fa3-61b3-45e8-b50e-5f5dd8067c05);}.fd51738e-4d15-4c9f-8cff-1a6cd15d03ab{fill:url(#fe08e958-ba31-40d6-813e-26f3803fa58e);}</style><linearGradient id="a7fb876a-2849-46cc-95f3-66fe285ad511" x1="105.28" y1="113.26" x2="386.79" y2="116.59" gradientUnits="userSpaceOnUse"><stop offset="0" stop-color="#392dd1"/><stop offset="1" stop-color="#a91b78"/></linearGradient><linearGradient id="f8cfc9f6-dc1a-4f9c-a551-22f0d3af8eae" x1="119.56" y1="109.88" x2="188.52" y2="283.86" gradientUnits="userSpaceOnUse"><stop offset="0" stop-color="#1d1d1b" stop-opacity="0.25"/><stop offset="1" stop-color="#1d1d1b" stop-opacity="0.7"/></linearGradient><linearGradient id="ad960c03-0fe1-439d-b5be-a8c08a38c22e" x1="104.06" y1="184.21" x2="382.66" y2="187.51" xlink:href="#a7fb876a-2849-46cc-95f3-66fe285ad511"/><linearGradient id="b5236e83-da1f-45e7-b21a-32463bcce144" x1="239.23" y1="61.65" x2="306.42" y2="231.16" xlink:href="#f8cfc9f6-dc1a-4f9c-a551-22f0d3af8eae"/><linearGradient id="a729be9f-73c8-4762-84b2-7658e55b63f1" x1="280.33" y1="145.45" x2="293.42" y2="208.2" gradientUnits="userSpaceOnUse"><stop offset="0" stop-opacity="0.25"/><stop offset="1" stop-opacity="0.8"/></linearGradient><linearGradient id="b4634bf4-74d4-4dc3-bf2c-0d3deecb7629" x1="100.41" y1="234.76" x2="384.06" y2="238.11" xlink:href="#a7fb876a-2849-46cc-95f3-66fe285ad511"/><linearGradient id="a85b8dfc-2e97-405a-9dbd-a2c277d93fbc" x1="103.47" y1="241.49" x2="381.96" y2="244.79" xlink:href="#a7fb876a-2849-46cc-95f3-66fe285ad511"/><linearGradient id="b6668028-b85e-4910-8c8e-002dcab12afc" x1="227.55" y1="66.28" x2="294.73" y2="235.79" xlink:href="#f8cfc9f6-dc1a-4f9c-a551-22f0d3af8eae"/><linearGradient id="a490496a-d47f-41b3-84d1-e79787994fed" x1="274.66" y1="146.84" x2="287.76" y2="209.58" gradientUnits="userSpaceOnUse"><stop offset="0" stop-color="#1d1d1b" stop-opacity="0.25"/><stop offset="1" stop-color="#1d1d1b" stop-opacity="0.8"/></linearGradient><linearGradient id="a73fe14e-7c51-4f57-9be2-4dfddab6652c" x1="206.29" y1="181.44" x2="357.22" y2="184.53" xlink:href="#a7fb876a-2849-46cc-95f3-66fe285ad511"/><linearGradient id="b4b95787-a38f-4724-bcd9-af20bbfb8d37" x1="151.83" y1="182.08" x2="200.21" y2="286.79" xlink:href="#a729be9f-73c8-4762-84b2-7658e55b63f1"/><linearGradient id="aef32773-17e1-42fb-9ed4-082d494abcfc" x1="103.41" y1="203.16" x2="383.78" y2="206.48" xlink:href="#a7fb876a-2849-46cc-95f3-66fe285ad511"/><linearGradient id="e4a0cb28-51f5-4b05-8871-83127f81ca06" x1="118.64" y1="107.66" x2="186.54" y2="278.96" xlink:href="#f8cfc9f6-dc1a-4f9c-a551-22f0d3af8eae"/><linearGradient id="a6016fa3-61b3-45e8-b50e-5f5dd8067c05" x1="145.88" y1="180.94" x2="193.56" y2="284.14" xlink:href="#a729be9f-73c8-4762-84b2-7658e55b63f1"/><linearGradient id="fe08e958-ba31-40d6-813e-26f3803fa58e" x1="104.18" y1="183.72" x2="382.68" y2="187.01" xlink:href="#a7fb876a-2849-46cc-95f3-66fe285ad511"/></defs><g id="ac804c74-440a-4e00-97aa-3b9a3a050170" data-name="Calque 2"><g id="b49eca75-88b7-4671-920d-9bc958eea103" data-name="Calque 1"><circle class="a388c002-a07b-4fab-a8a3-1d678aebff70" cx="256" cy="256" r="256"/><path d="M98,407.93v3H81.8V384.21h3.34v23.72Z"/><path d="M115.77,405.42h3.17a6.42,6.42,0,0,1-2.66,4.2,8.78,8.78,0,0,1-5.36,1.65,8.24,8.24,0,0,1-6.5-2.67,10.47,10.47,0,0,1-2.37-7.22,10.79,10.79,0,0,1,2.37-7.28,8,8,0,0,1,6.35-2.76,7.72,7.72,0,0,1,6.15,2.61,10.37,10.37,0,0,1,2.26,7v1.22H105.36v.19a6.35,6.35,0,0,0,1.52,4.44,5.25,5.25,0,0,0,4.11,1.67,5.57,5.57,0,0,0,3.09-.83A3.9,3.9,0,0,0,115.77,405.42Zm-5.06-11.28a4.9,4.9,0,0,0-3.71,1.54,6.12,6.12,0,0,0-1.62,4h10.46a5.86,5.86,0,0,0-1.46-4A4.75,4.75,0,0,0,110.71,394.14Z"/><path d="M142.2,411.27a7.4,7.4,0,0,1-6-2.72,12.7,12.7,0,0,1,0-14.48,7.29,7.29,0,0,1,5.91-2.73,7.14,7.14,0,0,1,3.64.93,6.29,6.29,0,0,1,2.48,2.53h.08V384.21h3.22v26.73h-3.07v-3.26h-.06a6.93,6.93,0,0,1-2.55,2.63A7.05,7.05,0,0,1,142.2,411.27Zm.61-17.1a4.86,4.86,0,0,0-4.05,1.94,9.71,9.71,0,0,0,0,10.4,5.17,5.17,0,0,0,8.07,0,9.54,9.54,0,0,0,0-10.35A4.87,4.87,0,0,0,142.81,394.17Z"/><path d="M160,388.43a2,2,0,0,1-1.4-3.42,2,2,0,0,1,1.4-.58,2,2,0,0,1,1.43.58,2,2,0,0,1,0,2.83A2,2,0,0,1,160,388.43Zm-1.61,22.51V391.67h3.23v19.27Z"/><path d="M176.3,418.2a9.23,9.23,0,0,1-5.45-1.61,6.06,6.06,0,0,1-2.68-4.06h3.31a4,4,0,0,0,1.82,2.13,6,6,0,0,0,3.13.79,5.54,5.54,0,0,0,3.91-1.31,4.5,4.5,0,0,0,1.44-3.48v-3h-.08a6.68,6.68,0,0,1-2.53,2.53,7.75,7.75,0,0,1-9.54-1.75,12.71,12.71,0,0,1,0-14.37,7.35,7.35,0,0,1,6-2.69,7.19,7.19,0,0,1,3.67.94,7,7,0,0,1,2.59,2.63h.06v-3.24H185v18.88a7,7,0,0,1-2.37,5.55A9.2,9.2,0,0,1,176.3,418.2Zm-.11-9.95a4.92,4.92,0,0,0,4.05-1.93,7.88,7.88,0,0,0,1.54-5.09,8,8,0,0,0-1.54-5.12,4.93,4.93,0,0,0-4.05-1.94,4.82,4.82,0,0,0-4,1.92,8.18,8.18,0,0,0-1.49,5.14,8.08,8.08,0,0,0,1.49,5.12A4.82,4.82,0,0,0,176.19,408.25Z"/><path d="M193.32,388.43a2,2,0,0,1-1.41-3.42,2,2,0,0,1,1.41-.58,2,2,0,0,1,1.42.58,2,2,0,0,1,0,2.83A2,2,0,0,1,193.32,388.43Zm-1.61,22.51V391.67h3.22v19.27Z"/><path d="M202.67,387h3.22v4.65h3.75v2.65h-3.75v11.45a2.73,2.73,0,0,0,.58,1.93,2.32,2.32,0,0,0,1.81.62,8.42,8.42,0,0,0,1.33-.09v2.71a10.55,10.55,0,0,1-2,.14,5,5,0,0,1-3.78-1.18,5.67,5.67,0,0,1-1.13-4V394.32H199.8v-2.65h2.87Z"/><path d="M220.67,411.27a6.69,6.69,0,0,1-4.64-1.59,5.37,5.37,0,0,1-1.76-4.19,4.82,4.82,0,0,1,1.82-4,8.75,8.75,0,0,1,5.16-1.67l5.52-.32v-1.61a3.51,3.51,0,0,0-1.12-2.76,4.5,4.5,0,0,0-3.11-1,5.07,5.07,0,0,0-3,.81,3.6,3.6,0,0,0-1.46,2.25H215a5.66,5.66,0,0,1,2.23-4.23,8.33,8.33,0,0,1,5.4-1.66A8,8,0,0,1,228,393a5.71,5.71,0,0,1,2,4.58v13.32h-3.06v-3.32h-.07a6.65,6.65,0,0,1-2.56,2.65A6.94,6.94,0,0,1,220.67,411.27Zm.72-2.74a5.48,5.48,0,0,0,3.83-1.42,4.57,4.57,0,0,0,1.55-3.49V402l-5.15.32a5.53,5.53,0,0,0-3,.94,2.64,2.64,0,0,0-1.07,2.19,2.67,2.67,0,0,0,1.06,2.2A4.34,4.34,0,0,0,221.39,408.53Z"/><path d="M236.6,410.94V384.21h3.22v26.73Z"/><path d="M262.29,411.27a6.69,6.69,0,0,1-4.64-1.59,5.38,5.38,0,0,1-1.77-4.19,4.83,4.83,0,0,1,1.83-4,8.72,8.72,0,0,1,5.15-1.67l5.52-.32v-1.61a3.54,3.54,0,0,0-1.11-2.76,4.52,4.52,0,0,0-3.11-1,5,5,0,0,0-3,.81,3.58,3.58,0,0,0-1.47,2.25H256.6a5.67,5.67,0,0,1,2.24-4.23,8.3,8.3,0,0,1,5.39-1.66,8,8,0,0,1,5.38,1.7,5.71,5.71,0,0,1,2,4.58v13.32h-3.05v-3.32h-.07a6.71,6.71,0,0,1-2.56,2.65A6.94,6.94,0,0,1,262.29,411.27Zm.72-2.74a5.48,5.48,0,0,0,3.83-1.42,4.56,4.56,0,0,0,1.54-3.49V402l-5.15.32a5.56,5.56,0,0,0-3,.94,2.8,2.8,0,0,0,0,4.39A4.34,4.34,0,0,0,263,408.53Z"/><path d="M293.87,391.67v19.27h-3.06v-3.13h-.07a7.18,7.18,0,0,1-11,1.56,7.32,7.32,0,0,1-1.77-5.2v-12.5h3.22V403.6q0,4.81,4.45,4.82a4.69,4.69,0,0,0,3.67-1.48,5.61,5.61,0,0,0,1.34-3.95V391.67Z"/><path d="M301.42,387h3.23v4.65h3.74v2.65h-3.74v11.45a2.78,2.78,0,0,0,.57,1.93,2.35,2.35,0,0,0,1.82.62,8.42,8.42,0,0,0,1.33-.09v2.71a10.75,10.75,0,0,1-2,.14,5.08,5.08,0,0,1-3.78-1.18,5.67,5.67,0,0,1-1.13-4V394.32h-2.87v-2.65h2.87Z"/><path d="M314.17,410.94V391.67h3v3.15h.08a4.85,4.85,0,0,1,1.73-2.55,4.78,4.78,0,0,1,2.94-.93,9.71,9.71,0,0,1,1.29.13v3.13a5.7,5.7,0,0,0-1.72-.19,3.88,3.88,0,0,0-3,1.24,4.72,4.72,0,0,0-1.13,3.28v12Z"/><path d="M340.06,405.42h3.17a6.42,6.42,0,0,1-2.66,4.2,8.78,8.78,0,0,1-5.36,1.65,8.24,8.24,0,0,1-6.5-2.67,10.47,10.47,0,0,1-2.37-7.22,10.75,10.75,0,0,1,2.38-7.28,7.94,7.94,0,0,1,6.34-2.76,7.72,7.72,0,0,1,6.15,2.61,10.32,10.32,0,0,1,2.26,7v1.22H329.65v.19a6.35,6.35,0,0,0,1.52,4.44,5.25,5.25,0,0,0,4.11,1.67,5.63,5.63,0,0,0,3.1-.83A3.93,3.93,0,0,0,340.06,405.42ZM335,394.14a4.9,4.9,0,0,0-3.71,1.54,6.12,6.12,0,0,0-1.62,4h10.46a5.86,5.86,0,0,0-1.46-4A4.75,4.75,0,0,0,335,394.14Z"/><path d="M349.06,410.94V391.67h3v3.08h.07a5.62,5.62,0,0,1,2.13-2.49,6.49,6.49,0,0,1,6.71,0,5.38,5.38,0,0,1,2,2.72h.08a6,6,0,0,1,2.4-2.7,6.86,6.86,0,0,1,3.64-1,5.9,5.9,0,0,1,6.28,6.3v13.3h-3.23V398.38a4.36,4.36,0,0,0-1-3.09,3.9,3.9,0,0,0-3-1.1,4.19,4.19,0,0,0-3.13,1.27,4.49,4.49,0,0,0-1.22,3.23v12.25h-3.22V398a3.71,3.71,0,0,0-1.08-2.79,3.91,3.91,0,0,0-2.87-1.05,4.16,4.16,0,0,0-3.16,1.34,4.68,4.68,0,0,0-1.25,3.33v12.08Z"/><path d="M394.66,405.42h3.17a6.42,6.42,0,0,1-2.66,4.2,8.76,8.76,0,0,1-5.36,1.65,8.25,8.25,0,0,1-6.5-2.67,10.47,10.47,0,0,1-2.37-7.22,10.75,10.75,0,0,1,2.38-7.28,7.94,7.94,0,0,1,6.34-2.76,7.72,7.72,0,0,1,6.15,2.61,10.32,10.32,0,0,1,2.26,7v1.22H384.25v.19a6.35,6.35,0,0,0,1.52,4.44,5.25,5.25,0,0,0,4.11,1.67,5.57,5.57,0,0,0,3.09-.83A3.9,3.9,0,0,0,394.66,405.42Zm-5.06-11.28a4.9,4.9,0,0,0-3.71,1.54,6.12,6.12,0,0,0-1.62,4h10.47a5.92,5.92,0,0,0-1.47-4A4.75,4.75,0,0,0,389.6,394.14Z"/><path d="M403.66,410.94V391.67h3v3.08h.07a6.09,6.09,0,0,1,2.39-2.51,7.33,7.33,0,0,1,3.73-.9,6.34,6.34,0,0,1,4.9,1.9,7.3,7.3,0,0,1,1.76,5.19v12.51h-3.22V399a5.21,5.21,0,0,0-1.11-3.59,4.25,4.25,0,0,0-3.32-1.23,4.77,4.77,0,0,0-3.65,1.48,5.58,5.58,0,0,0-1.37,3.93v11.34Z"/><path d="M427,387h3.22v4.65H434v2.65h-3.74v11.45a2.78,2.78,0,0,0,.57,1.93,2.36,2.36,0,0,0,1.82.62,8.42,8.42,0,0,0,1.33-.09v2.71a10.75,10.75,0,0,1-2,.14,5,5,0,0,1-3.77-1.18,5.62,5.62,0,0,1-1.13-4V394.32h-2.87v-2.65H427Z"/><path class="b64cea32-70de-4b82-8010-7a8da677ae37" d="M91.36,126.69l72.88,7.77L159.8,124a49.48,49.48,0,0,0-46.61-31.16l0,0H86.93a6.14,6.14,0,0,0-5.71,8.42Z"/><path class="a012e52f-3f7d-427e-a7d3-0c7e779fddb3" d="M91.36,126.69l72.88,7.77L159.8,124a49.48,49.48,0,0,0-46.61-31.16l0,0H86.93a6.14,6.14,0,0,0-5.71,8.42Z"/><path class="b0d1fed1-64f4-4214-8cf3-ec5c4e999a67" d="M304,236.41s4.28-9.93,6.22-14.78l13.63-34.16-19.69-49.35a16.3,16.3,0,0,0-30.18.77h0l-16.91,42.38-2.62,6.44L272.92,234l0-.07C278.35,246.77,296.57,248.21,304,236.41Z"/><path class="e4b04d27-0866-470c-b60f-1b44b5af090c" d="M304,236.41s4.28-9.93,6.22-14.78l13.63-34.16-19.69-49.35a16.3,16.3,0,0,0-30.18.77h0l-16.91,42.38-2.62,6.44L272.92,234l0-.07C278.35,246.77,296.57,248.21,304,236.41Z"/><path class="aba56e96-23cd-48eb-857c-c5753cd1122d" d="M303.94,236.22s4.28-9.93,6.22-14.78l13.63-34.16L304.1,137.93a16.29,16.29,0,0,0-30.18.76l0,.05-16.89,42-2.62,6.76,18.47,46.28,0-.07C278.28,246.57,296.5,248,303.94,236.22Z"/><path class="b706e286-70c3-48ca-8ec3-0a1dc18510f2" d="M275.16,239.63,272.92,234C273.67,235.88,274.41,237.76,275.16,239.63Z"/><path class="e8bdc775-1b5b-4848-ad92-7b6cbd00f52f" d="M304,236.41c-7.43,11.8-25.65,10.36-31.11-2.49l0,.07,2.24,5.64c2.88,7.16,6,14.05,10.9,20,.4.46.77.94,1.18,1.39s1,1.09,1.58,1.63a47.56,47.56,0,0,0,3.56,3.26l.13.11,17.71-44.41C308.28,226.48,304,236.41,304,236.41Z"/><path class="e034f7ab-b72c-4209-930d-410b43b629ce" d="M304,236.41c-7.43,11.8-25.65,10.36-31.11-2.49l0,.07,2.24,5.64c2.88,7.16,6,14.05,10.9,20,.4.46.77.94,1.18,1.39s1,1.09,1.58,1.63a47.56,47.56,0,0,0,3.56,3.26l.13.11,17.71-44.41C308.28,226.48,304,236.41,304,236.41Z"/><path class="feefed2f-6cb4-4575-bf9c-698850f8212f" d="M304,236.41c-7.43,11.8-25.65,10.36-31.11-2.49l0,.07,2.24,5.64c2.88,7.16,6,14.05,10.9,20,.4.46.77.94,1.18,1.39s1,1.09,1.58,1.63a47.56,47.56,0,0,0,3.56,3.26l.13.11,17.71-44.41C308.28,226.48,304,236.41,304,236.41Z"/><path class="b6c3608f-4c67-42b7-a5fb-9b6c798c44dc" d="M395.73,92.85C375,93.26,356.86,105,349,124.5c-4.57,11.29-9,22.63-13.54,33.94l-25.18,63.12,0,.07c-1.94,4.85-6.22,14.78-6.22,14.78-7.43,11.8-25.65,10.36-31.11-2.49l0,.07,2.24,5.64c2.88,7.16,6,14.05,10.9,20,.4.46.77.94,1.18,1.39s1,1.09,1.58,1.63a47.56,47.56,0,0,0,3.56,3.26l.13.11a49.81,49.81,0,0,0,77.73-20.65c1.51-3.76,3-7.52,4.5-11.28l20.69-51.86,22.93-57.48Q423.67,111.48,429,98.2l2.13-5.35Z"/><path class="b9cbce01-72a5-4282-beba-2ab39db30e15" d="M91.36,126.69l72.88,7.77L159.8,124a49.48,49.48,0,0,0-46.61-31.16l0,0H86.93a6.14,6.14,0,0,0-5.71,8.42Z"/><path class="e9a1c1ca-b0f4-4a87-8472-01dcce4efd69" d="M180,174.56l-.08-.19Z"/><path class="f8a2ffcd-7595-4c2e-b19c-e4fd0aa8a8c9" d="M180,174.56h0l-.08-.19c-.95-2.3-12.83-26.75-82.94-33.57h0l42,105.1a49.17,49.17,0,0,0,14.83,20.15l31.35-78.58L180,174.56Z"/><path class="af14a7be-6f75-4145-8be8-ba3c15eb3e23" d="M180,174.56h0l-.08-.19c-.95-2.3-12.83-26.75-82.94-33.57h0l42,105.1a49.17,49.17,0,0,0,14.83,20.15l31.35-78.58L180,174.56Z"/><path class="b63e222a-daf0-4ff8-ad70-7b67e5f8f5ab" d="M180,174.56h0l-.08-.19c-.95-2.3-12.83-26.75-82.94-33.57h0l42,105.1a49.17,49.17,0,0,0,14.83,20.15l31.35-78.58L180,174.56Z"/><path class="fd51738e-4d15-4c9f-8cff-1a6cd15d03ab" d="M298.57,124a49.77,49.77,0,0,0-31.33-28.94c-13.6-4.23-28-1.24-39.5,6.93-14.53,10.3-19.33,27.1-25.6,42.81Q188,180.23,173.86,215.66c-2.34,5.85-4.56,11.75-7,17.56-5.93,14.08-26.44,15.38-32.7.66,3.58,9,6.65,18.15,13,25.64a50,50,0,0,0,79.15-4.17c3.07-4.52,5-9.47,7-14.49,12-30,39-97.92,40.64-101.85,5.45-13,24.51-13.91,30.25-.93Z"/><path d="M96.8,355q12.86,0,12.86-8.8a8.84,8.84,0,0,0-1.14-4.62,11.11,11.11,0,0,0-3.09-3.3,21.61,21.61,0,0,0-4.45-2.41c-1.66-.68-3.42-1.35-5.29-2a53.83,53.83,0,0,1-6.09-2.5,21.41,21.41,0,0,1-5-3.3,13.86,13.86,0,0,1-3.34-4.52A14.89,14.89,0,0,1,80,317.21q0-7.69,5.25-12t14.47-4.31a38.34,38.34,0,0,1,9.69,1.14,22.31,22.31,0,0,1,6.39,2.5l-2.63,6.68a23.44,23.44,0,0,0-5.29-2.16A28.56,28.56,0,0,0,99.76,308a18.52,18.52,0,0,0-4.4.5A11.28,11.28,0,0,0,91.8,310a7.53,7.53,0,0,0-2.41,2.58,7.35,7.35,0,0,0-.89,3.68,7.84,7.84,0,0,0,.93,4,9.24,9.24,0,0,0,2.63,2.83A22.13,22.13,0,0,0,96,325.33q2.25,1,5,2c2.54,1,4.87,2,7,3a22.76,22.76,0,0,1,5.5,3.64,14.7,14.7,0,0,1,3.6,5,17.66,17.66,0,0,1,1.27,7.07q0,7.69-5.63,11.85T96.8,362.14a40.65,40.65,0,0,1-6.39-.46,48.51,48.51,0,0,1-5.21-1.1,29.61,29.61,0,0,1-3.93-1.36c-1.1-.47-2-.88-2.58-1.22l2.45-6.77a37.27,37.27,0,0,0,5.92,2.45A30.58,30.58,0,0,0,96.8,355Z"/><path d="M135,316.87h11.39v6.6H135v20.31a24.33,24.33,0,0,0,.51,5.46,8.23,8.23,0,0,0,1.52,3.38,5.53,5.53,0,0,0,2.54,1.74,11.24,11.24,0,0,0,3.56.51,16.59,16.59,0,0,0,5.71-.81q2.16-.8,3-1.14l1.53,6.52a31.87,31.87,0,0,1-4.15,1.48,23.7,23.7,0,0,1-6.77.88,20.51,20.51,0,0,1-7.4-1.14,10.8,10.8,0,0,1-4.7-3.42,13.71,13.71,0,0,1-2.5-5.63,37.06,37.06,0,0,1-.72-7.74V304.6l7.87-1.35Z"/><path d="M175.91,315.77a22.77,22.77,0,0,1,8,1.23,12.49,12.49,0,0,1,8.08,8.8,25.91,25.91,0,0,1,.85,6.81v27.5l-2.84.47c-1.21.2-2.58.38-4.1.55s-3.17.32-5,.46-3.54.21-5.29.21a28.8,28.8,0,0,1-6.85-.76,15.25,15.25,0,0,1-5.42-2.41,11,11,0,0,1-3.55-4.36,15.15,15.15,0,0,1-1.27-6.51,12.5,12.5,0,0,1,1.48-6.26,11.84,11.84,0,0,1,4-4.24A18.4,18.4,0,0,1,170,334.9a32.15,32.15,0,0,1,7.11-.77c.79,0,1.61.05,2.45.13s1.65.2,2.41.34l2,.38,1.19.25V333a17.28,17.28,0,0,0-.43-3.85,8.81,8.81,0,0,0-1.52-3.38,7.62,7.62,0,0,0-3-2.37,11.82,11.82,0,0,0-4.95-.89,36.78,36.78,0,0,0-6.81.55,24.52,24.52,0,0,0-4.36,1.14l-.93-6.51a24,24,0,0,1,5.07-1.31A43.22,43.22,0,0,1,175.91,315.77Zm.68,39.43q2.79,0,4.95-.12a21.71,21.71,0,0,0,3.6-.47V341.5a9.94,9.94,0,0,0-2.75-.72,30.23,30.23,0,0,0-4.61-.3,31.64,31.64,0,0,0-3.77.25,11.76,11.76,0,0,0-3.64,1.06,7.82,7.82,0,0,0-2.75,2.2,5.8,5.8,0,0,0-1.1,3.68q0,4.23,2.71,5.88A14.08,14.08,0,0,0,176.59,355.2Z"/><path d="M222.12,315.94a22.79,22.79,0,0,1,2.32.13c.88.08,1.74.2,2.58.34s1.62.28,2.33.42a14.6,14.6,0,0,1,1.57.38l-1.36,6.85a27.65,27.65,0,0,0-3.09-.8,27.1,27.1,0,0,0-5.54-.46,20.63,20.63,0,0,0-4.36.46c-1.44.31-2.38.52-2.83.64v37h-7.87V318.73a54,54,0,0,1,6.94-1.9A44.66,44.66,0,0,1,222.12,315.94Z"/><path d="M245.89,316.87h10.54v6.6H245.89v20.31a24.33,24.33,0,0,0,.51,5.46,8.23,8.23,0,0,0,1.52,3.38,5.53,5.53,0,0,0,2.54,1.74,11.24,11.24,0,0,0,3.56.51,16.59,16.59,0,0,0,5.71-.81q2.16-.8,3-1.14l1.52,6.52a31,31,0,0,1-4.14,1.48,23.7,23.7,0,0,1-6.77.88,20.51,20.51,0,0,1-7.4-1.14,10.74,10.74,0,0,1-4.7-3.42,13.71,13.71,0,0,1-2.5-5.63,37.06,37.06,0,0,1-.72-7.74V304.6l7.87-1.35Z"/><path d="M264.68,331.85h20.9v7.36h-20.9Z"/><path d="M385.09,303.67a5.87,5.87,0,0,1-1.86,4.57,6.32,6.32,0,0,1-4.4,1.69,6.43,6.43,0,0,1-4.49-1.69,5.87,5.87,0,0,1-1.86-4.57,6,6,0,0,1,1.86-4.65,6.44,6.44,0,0,1,4.49-1.7,6.33,6.33,0,0,1,4.4,1.7A6,6,0,0,1,385.09,303.67Zm-1.1,57.2H373.75V316.62H384Z"/><path d="M397,318.06a68,68,0,0,1,7.7-1.61,66.16,66.16,0,0,1,10.49-.76,24.13,24.13,0,0,1,9.06,1.48,14.26,14.26,0,0,1,5.8,4.14,16,16,0,0,1,3,6.44A36,36,0,0,1,434,336v24.87H423.76V337.6a33.62,33.62,0,0,0-.47-6.05,10.7,10.7,0,0,0-1.52-4.06,6,6,0,0,0-2.88-2.28,12.07,12.07,0,0,0-4.44-.72,33.87,33.87,0,0,0-4.06.25c-1.41.17-2.45.31-3.13.42v35.71H397Z"/><path d="M353.78,304.56c-.56,3.15-1.12,6.3-1.73,9.52q-1.14,6-2.33,11.8t-2.37,11.17q-1.19,5.38-2.45,9.95-1.53-4.23-3.18-9t-3.3-9.73q-1.65-5-3.17-9.9t-2.85-9.43l-9.75,2c-.69,2.41-1.4,4.87-2.17,7.41q-1.47,4.9-3.08,9.86t-3.26,9.73q-1.65,4.78-3.26,9.1-1.28-4.58-2.54-10c-.84-3.61-1.68-7.35-2.49-11.21-.77-3.61-1.5-7.29-2.22-11l-10.8,2.2q1.71,8.1,3.61,15.85,3.58,14.69,8.14,28.05h10.18Q318,352.25,321.2,343t6.35-19.46q6.13,20.22,12.69,37.31H350.5q4.49-13.37,8.11-28.05t6.59-30.58Z"/></g></g></svg>